<svg width="339" height="120" viewBox="0 0 339 120" fill="none" xmlns="http://www.w3.org/2000/svg">
<path d="M18.1855 1C19.1781 1 20.1063 1.4911 20.665 2.31152L72.9365 79.0703C73.4907 79.8835 74.7627 79.4911 74.7627 78.5068V4C74.7627 2.34329 76.106 1.00023 77.7627 1H92.7627L92.917 1.00391C94.5021 1.08421 95.7627 2.39489 95.7627 4V116C95.7627 117.657 94.4195 119 92.7627 119H78.5791C77.5847 119 76.6549 118.507 76.0967 117.684L23.8271 40.626C23.2741 39.8106 22 40.2022 22 41.1875V116C22 117.657 20.6567 119 19 119H4C2.34315 119 1 117.657 1 116V4L1.00391 3.8457C1.08421 2.26055 2.3949 1 4 1H18.1855ZM134.546 1C136.203 1 137.546 2.34315 137.546 4V116C137.546 117.657 136.203 119 134.546 119H119.067C117.411 119 116.067 117.657 116.067 116V4C116.067 2.34327 117.411 1.00021 119.067 1H134.546ZM176.332 1C177.989 1 179.332 2.34315 179.332 4V48.5674C179.332 49.4844 180.465 49.9171 181.077 49.2344L223.453 1.99707C224.022 1.36274 224.834 1 225.687 1H243.581C246.186 1.00019 247.553 4.09174 245.8 6.01855L200.564 55.7422C200.219 56.1216 200.217 56.7011 200.56 57.083L251.604 113.997C253.337 115.929 251.966 119 249.371 119H228.894C228.029 119 227.206 118.627 226.637 117.977L181.085 65.9668C180.477 65.2725 179.332 65.703 179.332 66.626V116C179.332 117.657 177.989 119 176.332 119H160.854C159.197 119 157.854 117.657 157.854 116V4C157.854 2.34327 159.197 1.0002 160.854 1H176.332ZM333.403 1C335.06 1 336.403 2.34315 336.403 4V17.1553C336.403 18.812 335.06 20.1553 333.403 20.1553H287.908C287.356 20.1555 286.908 20.6031 286.908 21.1553V47.5439C286.908 48.096 287.356 48.5437 287.908 48.5439H328.613C330.27 48.5439 331.613 49.8871 331.613 51.5439V64.6982C331.613 66.3551 330.27 67.6982 328.613 67.6982H287.908C287.356 67.6985 286.908 68.1463 286.908 68.6982V98.8447C286.908 99.3969 287.356 99.8445 287.908 99.8447H335C336.657 99.8447 338 101.188 338 102.845V116C338 117.657 336.657 119 335 119H268.749C267.092 119 265.749 117.657 265.749 116V4C265.749 2.34327 267.092 1.0002 268.749 1H333.403Z" fill="#F2F2F2" stroke="#F2F2F2" stroke-width="2" stroke-linejoin="round"/>
</svg>
